<svg width="100" height="100" viewBox="0 0 100 100" fill="none" xmlns="http://www.w3.org/2000/svg">
<rect width="100" height="100" rx="10" fill="black"/>
<path d="M50.3831 84L25.5369 77.1025L20 15H80.8407L75.298 77.0928L50.3831 84Z" fill="#264DE4"/>
<path d="M70.5528 73.1373L75.2895 20.0762H50.4204V78.7188L70.5528 73.1373Z" fill="#2965F1"/>
<path d="M32.6929 43.1152L33.3755 50.7318H50.4201V43.1152H32.6929Z" fill="#EBEBEB"/>
<path d="M31.3213 27.6963L32.0137 35.313H50.4202V27.6963H31.3213Z" fill="#EBEBEB"/>
<path d="M50.42 62.8943L50.3867 62.9032L41.904 60.6127L41.3617 54.5381H33.7158L34.7829 66.4973L50.385 70.8285L50.42 70.8188V62.8943Z" fill="#EBEBEB"/>
<path d="M68.0978 43.1135L69.4728 27.6973H50.3931V35.314H61.1257L60.4326 43.1135H50.3931V50.73H59.7721L58.888 60.6082L50.3931 62.9011V70.8252L66.0076 66.4977L66.1221 65.2108L67.9119 45.1588L68.0978 43.1135Z" fill="white"/>
</svg>
